# This file uses centimeters as units for non-parametric coordinates.

mtllib good_airplane_Model.mtl
g default
v -0.010329 2.960413 1.794835
v -0.014348 2.969215 1.792311
v -3.251104 2.578615 5.583200
v -1.633470 1.799015 0.289289
v -3.247085 2.569813 5.585724
v -1.629452 1.790213 0.291813
vt 0.625000 0.000000
vt 0.625000 0.250000
vt 0.375000 0.500000
vt 0.625000 0.500000
vt 0.375000 0.750000
vt 0.625000 0.750000
vt 0.625000 1.000000
vt 0.875000 0.000000
vt 0.875000 0.250000
vt 0.125000 0.000000
vt 0.125000 0.250000
vn -0.401854 0.880226 -0.252418
vn -0.401854 0.880226 -0.252418
vn -0.401854 0.880226 -0.252418
vn -0.868780 -0.453599 -0.198668
vn -0.868780 -0.453599 -0.198668
vn -0.868780 -0.453599 -0.198668
vn -0.868780 -0.453599 -0.198668
vn 0.401854 -0.880226 0.252418
vn 0.401854 -0.880226 0.252418
vn 0.401854 -0.880226 0.252418
vn 0.647351 0.078120 -0.758178
vn 0.647351 0.078120 -0.758178
vn 0.647351 0.078120 -0.758178
vn 0.647351 0.078120 -0.758178
vn 0.647649 0.468080 0.601208
vn 0.647649 0.468080 0.601208
vn 0.647649 0.468080 0.601208
vn 0.647649 0.468080 0.601208
s off
g tri7_L1
usemtl initialShadingGroup
f 2/2/1 4/4/2 3/3/3
f 3/3/4 4/4/5 6/6/6 5/5/7
f 5/5/8 6/6/9 1/7/10
f 1/1/11 6/8/12 4/9/13 2/2/14
f 2/2/15 3/11/16 5/10/17 1/1/18
g default
v -0.939583 3.332685 4.997462
v -3.246577 2.570063 5.585842
v -0.935986 3.323675 4.999888
v -3.242979 2.561054 5.588268
v -0.472698 2.162347 -0.000029
v -1.626195 1.781036 0.294160
v -0.476295 2.171357 -0.002455
v -1.629792 1.790045 0.291734
vt 0.375000 0.000000
vt 0.625000 0.000000
vt 0.375000 0.250000
vt 0.625000 0.250000
vt 0.375000 0.500000
vt 0.625000 0.500000
vt 0.375000 0.750000
vt 0.625000 0.750000
vt 0.375000 1.000000
vt 0.625000 1.000000
vt 0.875000 0.000000
vt 0.875000 0.250000
vt 0.125000 0.000000
vt 0.125000 0.250000
vn 0.138042 0.308528 0.941146
vn 0.138042 0.308528 0.941146
vn 0.138042 0.308528 0.941146
vn 0.138042 0.308528 0.941146
vn 0.359708 -0.900975 0.242599
vn 0.359708 -0.900975 0.242599
vn 0.359708 -0.900975 0.242599
vn 0.359708 -0.900975 0.242599
vn -0.138041 -0.308528 -0.941146
vn -0.138041 -0.308528 -0.941146
vn -0.138041 -0.308528 -0.941146
vn -0.138041 -0.308528 -0.941146
vn -0.359708 0.900975 -0.242599
vn -0.359708 0.900975 -0.242599
vn -0.359708 0.900975 -0.242599
vn -0.359708 0.900975 -0.242599
vn -0.887109 -0.410822 -0.210390
vn -0.887109 -0.410822 -0.210390
vn -0.887109 -0.410822 -0.210390
vn -0.887109 -0.410822 -0.210390
vn 0.928725 0.370770 -0.000062
vn 0.928725 0.370770 -0.000062
vn 0.928725 0.370770 -0.000062
vn 0.928725 0.370770 -0.000062
s off
g quad2_L
usemtl initialShadingGroup
f 7/12/19 8/13/20 10/15/21 9/14/22
f 9/14/23 10/15/24 12/17/25 11/16/26
f 11/16/27 12/17/28 14/19/29 13/18/30
f 13/18/31 14/19/32 8/21/33 7/20/34
f 8/13/35 14/22/36 12/23/37 10/15/38
f 13/24/39 7/12/40 9/14/41 11/25/42
g default
v 0.000000 1.005000 5.000000
v -0.926961 3.326798 5.000000
v -0.009287 1.001292 5.000000
v -0.936248 3.323090 5.000000
v -0.009287 1.001292 0.000000
v -0.472768 2.162191 -0.000000
v 0.000000 1.005000 0.000000
v -0.463481 2.165899 -0.000000
vt 0.375000 0.000000
vt 0.625000 0.000000
vt 0.375000 0.250000
vt 0.625000 0.250000
vt 0.375000 0.500000
vt 0.625000 0.500000
vt 0.375000 0.750000
vt 0.625000 0.750000
vt 0.375000 1.000000
vt 0.625000 1.000000
vt 0.875000 0.000000
vt 0.875000 0.250000
vt 0.125000 0.000000
vt 0.125000 0.250000
vn -0.000000 0.000000 1.000000
vn -0.000000 0.000000 1.000000
vn -0.000000 0.000000 1.000000
vn -0.000000 0.000000 1.000000
vn -0.928719 -0.370784 0.000000
vn -0.928719 -0.370784 0.000000
vn -0.928719 -0.370784 0.000000
vn -0.928719 -0.370784 0.000000
vn 0.000000 -0.000001 -1.000000
vn 0.000000 -0.000001 -1.000000
vn 0.000000 -0.000001 -1.000000
vn 0.000000 -0.000001 -1.000000
vn 0.928719 0.370784 0.000000
vn 0.928719 0.370784 0.000000
vn 0.928719 0.370784 0.000000
vn 0.928719 0.370784 0.000000
vn -0.359714 0.900990 -0.242535
vn -0.359714 0.900990 -0.242535
vn -0.359714 0.900990 -0.242535
vn -0.359714 0.900990 -0.242535
vn 0.370784 -0.928719 0.000000
vn 0.370784 -0.928719 0.000000
vn 0.370784 -0.928719 0.000000
vn 0.370784 -0.928719 0.000000
s off
g quad1_L
usemtl initialShadingGroup
f 15/26/43 16/27/44 18/29/45 17/28/46
f 17/28/47 18/29/48 20/31/49 19/30/50
f 19/30/51 20/31/52 22/33/53 21/32/54
f 21/32/55 22/33/56 16/35/57 15/34/58
f 16/27/59 22/36/60 20/37/61 18/29/62
f 21/38/63 15/26/64 17/28/65 19/39/66
g default
v -0.000835 2.934398 1.802066
v 0.003069 2.943259 1.799568
v 0.016152 1.019303 -5.004711
v 1.633788 1.798909 0.289198
v 0.012248 1.010442 -5.002213
v 1.629883 1.790048 0.291696
vt 0.625000 0.000000
vt 0.625000 0.250000
vt 0.375000 0.500000
vt 0.625000 0.500000
vt 0.375000 0.750000
vt 0.625000 0.750000
vt 0.625000 1.000000
vt 0.875000 0.000000
vt 0.875000 0.250000
vt 0.125000 0.000000
vt 0.125000 0.250000
vn 0.390447 0.886088 -0.249797
vn 0.390447 0.886088 -0.249797
vn 0.390447 0.886088 -0.249797
vn 0.873965 -0.442039 -0.201958
vn 0.873965 -0.442039 -0.201958
vn 0.873965 -0.442039 -0.201958
vn 0.873965 -0.442039 -0.201958
vn -0.390447 -0.886088 0.249797
vn -0.390447 -0.886088 0.249797
vn -0.390447 -0.886088 0.249797
vn 0.649671 -0.072949 0.756708
vn 0.649671 -0.072949 0.756708
vn 0.649671 -0.072949 0.756708
vn 0.649671 -0.072949 0.756708
vn -0.920623 0.375254 -0.107875
vn -0.920623 0.375254 -0.107875
vn -0.920623 0.375254 -0.107875
vn -0.920623 0.375254 -0.107875
s off
g tri3_R
usemtl initialShadingGroup
f 24/41/67 26/43/68 25/42/69
f 25/42/70 26/43/71 28/45/72 27/44/73
f 27/44/74 28/45/75 23/46/76
f 23/40/77 28/47/78 26/48/79 24/41/80
f 24/41/81 25/50/82 27/49/83 23/40/84
g default
v 1.637692 1.807769 0.286699
v 1.633788 1.798908 0.289197
v 0.016153 1.019303 -5.004711
v 0.003069 2.943259 1.799568
v 0.020057 1.028164 -5.007209
v 0.006974 2.952120 1.797070
vt 0.625000 0.000000
vt 0.625000 0.250000
vt 0.375000 0.500000
vt 0.625000 0.500000
vt 0.375000 0.750000
vt 0.625000 0.750000
vt 0.625000 1.000000
vt 0.875000 0.000000
vt 0.875000 0.250000
vt 0.125000 0.000000
vt 0.125000 0.250000
vn -0.390448 -0.886088 0.249797
vn -0.390448 -0.886088 0.249797
vn -0.390448 -0.886088 0.249797
vn -0.920623 0.375254 -0.107875
vn -0.920623 0.375254 -0.107875
vn -0.920623 0.375254 -0.107875
vn -0.920623 0.375254 -0.107875
vn 0.390447 0.886088 -0.249797
vn 0.390447 0.886088 -0.249797
vn 0.390447 0.886088 -0.249797
vn 0.649671 -0.072949 0.756708
vn 0.649671 -0.072949 0.756708
vn 0.649671 -0.072949 0.756708
vn 0.649671 -0.072949 0.756708
vn 0.873966 -0.442039 -0.201954
vn 0.873966 -0.442039 -0.201954
vn 0.873966 -0.442039 -0.201954
vn 0.873966 -0.442039 -0.201954
s off
g tri4_R
usemtl initialShadingGroup
f 30/52/85 32/54/86 31/53/87
f 31/53/88 32/54/89 34/56/90 33/55/91
f 33/55/92 34/56/93 29/57/94
f 29/51/95 34/58/96 32/59/97 30/52/98
f 30/52/99 31/61/100 33/60/101 29/51/102
g default
v 0.009287 1.001292 0.000000
v -0.000000 1.005000 0.000000
v 0.000000 1.005000 -5.000000
v 0.463480 2.165899 -0.000000
v 0.009287 1.001292 -5.000000
v 0.472768 2.162191 -0.000000
vt 0.625000 0.000000
vt 0.625000 0.250000
vt 0.375000 0.500000
vt 0.625000 0.500000
vt 0.375000 0.750000
vt 0.625000 0.750000
vt 0.625000 1.000000
vt 0.875000 0.000000
vt 0.875000 0.250000
vt 0.125000 0.000000
vt 0.125000 0.250000
vn -0.928719 0.370784 0.000000
vn -0.928719 0.370784 0.000000
vn -0.928719 0.370784 0.000000
vn 0.359714 0.900990 -0.242536
vn 0.359714 0.900990 -0.242536
vn 0.359714 0.900990 -0.242536
vn 0.359714 0.900990 -0.242536
vn 0.928719 -0.370784 -0.000000
vn 0.928719 -0.370784 -0.000000
vn 0.928719 -0.370784 -0.000000
vn 0.000000 0.000000 1.000000
vn 0.000000 0.000000 1.000000
vn 0.000000 0.000000 1.000000
vn 0.000000 0.000000 1.000000
vn -0.370784 -0.928719 -0.000000
vn -0.370784 -0.928719 -0.000000
vn -0.370784 -0.928719 -0.000000
vn -0.370784 -0.928719 -0.000000
s off
g tri6_R
usemtl initialShadingGroup
f 36/63/103 38/65/104 37/64/105
f 37/64/106 38/65/107 40/67/108 39/66/109
f 39/66/110 40/67/111 35/68/112
f 35/62/113 40/69/114 38/70/115 36/63/116
f 36/63/117 37/72/118 39/71/119 35/62/120
g default
v 1.620478 1.793813 0.291723
v 1.616881 1.784803 0.294149
v 0.000096 1.004785 -4.999959
v 0.463384 2.166114 -0.000041
v 0.003693 1.013795 -5.002385
v 0.466981 2.175124 -0.002467
vt 0.625000 0.000000
vt 0.625000 0.250000
vt 0.375000 0.500000
vt 0.625000 0.500000
vt 0.375000 0.750000
vt 0.625000 0.750000
vt 0.625000 1.000000
vt 0.875000 0.000000
vt 0.875000 0.250000
vt 0.125000 0.000000
vt 0.125000 0.250000
vn -0.359708 -0.900975 0.242599
vn -0.359708 -0.900975 0.242599
vn -0.359708 -0.900975 0.242599
vn -0.928725 0.370769 -0.000064
vn -0.928725 0.370769 -0.000064
vn -0.928725 0.370769 -0.000064
vn -0.928725 0.370769 -0.000064
vn 0.359708 0.900975 -0.242599
vn 0.359708 0.900975 -0.242599
vn 0.359708 0.900975 -0.242599
vn -0.138042 0.308528 0.941146
vn -0.138042 0.308528 0.941146
vn -0.138042 0.308528 0.941146
vn -0.138042 0.308528 0.941146
vn 0.887109 -0.410822 -0.210387
vn 0.887109 -0.410822 -0.210387
vn 0.887109 -0.410822 -0.210387
vn 0.887109 -0.410822 -0.210387
s off
g tri2_R
usemtl initialShadingGroup
f 42/74/121 44/76/122 43/75/123
f 43/75/124 44/76/125 46/78/126 45/77/127
f 45/77/128 46/78/129 41/79/130
f 41/73/131 46/80/132 44/81/133 42/74/134
f 42/74/135 43/83/136 45/82/137 41/73/138
g default
v 0.454193 2.169607 -0.000000
v 0.463480 2.165899 -0.000000
v -0.000000 1.005000 -5.000000
v 0.000000 1.005000 -0.000000
v -0.009287 1.008708 -5.000000
v -0.009287 1.008708 -0.000000
vt 0.625000 0.000000
vt 0.625000 0.250000
vt 0.375000 0.500000
vt 0.625000 0.500000
vt 0.375000 0.750000
vt 0.625000 0.750000
vt 0.625000 1.000000
vt 0.875000 0.000000
vt 0.875000 0.250000
vt 0.125000 0.000000
vt 0.125000 0.250000
vn 0.928719 -0.370784 0.000000
vn 0.928719 -0.370784 0.000000
vn 0.928719 -0.370784 0.000000
vn -0.370784 -0.928719 0.000000
vn -0.370784 -0.928719 0.000000
vn -0.370784 -0.928719 0.000000
vn -0.370784 -0.928719 0.000000
vn -0.928719 0.370784 -0.000000
vn -0.928719 0.370784 -0.000000
vn -0.928719 0.370784 -0.000000
vn 0.000000 0.000000 1.000000
vn 0.000000 0.000000 1.000000
vn 0.000000 0.000000 1.000000
vn 0.000000 0.000000 1.000000
vn 0.359714 0.900990 -0.242535
vn 0.359714 0.900990 -0.242535
vn 0.359714 0.900990 -0.242535
vn 0.359714 0.900990 -0.242535
s off
g tri1_R
usemtl initialShadingGroup
f 48/85/139 50/87/140 49/86/141
f 49/86/142 50/87/143 52/89/144 51/88/145
f 51/88/146 52/89/147 47/90/148
f 47/84/149 52/91/150 50/92/151 48/85/152
f 48/85/153 49/94/154 51/93/155 47/84/156
g default
v 0.472672 2.162406 -0.000041
v 0.476269 2.171415 -0.002467
v 0.012981 1.010087 -5.002385
v 1.629765 1.790105 0.291723
v 0.009384 1.001077 -4.999958
v 1.626168 1.781095 0.294149
vt 0.625000 0.000000
vt 0.625000 0.250000
vt 0.375000 0.500000
vt 0.625000 0.500000
vt 0.375000 0.750000
vt 0.625000 0.750000
vt 0.625000 1.000000
vt 0.875000 0.000000
vt 0.875000 0.250000
vt 0.125000 0.000000
vt 0.125000 0.250000
vn 0.359708 0.900975 -0.242599
vn 0.359708 0.900975 -0.242599
vn 0.359708 0.900975 -0.242599
vn 0.887108 -0.410822 -0.210391
vn 0.887108 -0.410822 -0.210391
vn 0.887108 -0.410822 -0.210391
vn 0.887108 -0.410822 -0.210391
vn -0.359708 -0.900975 0.242599
vn -0.359708 -0.900975 0.242599
vn -0.359708 -0.900975 0.242599
vn -0.138041 0.308528 0.941146
vn -0.138041 0.308528 0.941146
vn -0.138041 0.308528 0.941146
vn -0.138041 0.308528 0.941146
vn -0.928725 0.370770 -0.000062
vn -0.928725 0.370770 -0.000062
vn -0.928725 0.370770 -0.000062
vn -0.928725 0.370770 -0.000062
s off
g tri5_R
usemtl initialShadingGroup
f 54/96/157 56/98/158 55/97/159
f 55/97/160 56/98/161 58/100/162 57/99/163
f 57/99/164 58/100/165 53/101/166
f 53/95/167 58/102/168 56/103/169 54/96/170
f 54/96/171 55/105/172 57/104/173 53/95/174
g default
v 0.010714 2.959968 1.794841
v 0.006696 2.951165 1.797366
v 3.243451 2.560566 5.588255
v 1.625818 1.780966 0.294345
v 3.247470 2.569368 5.585731
v 1.629837 1.789768 0.291820
vt 0.625000 0.000000
vt 0.625000 0.250000
vt 0.375000 0.500000
vt 0.625000 0.500000
vt 0.375000 0.750000
vt 0.625000 0.750000
vt 0.625000 1.000000
vt 0.875000 0.000000
vt 0.875000 0.250000
vt 0.125000 0.000000
vt 0.125000 0.250000
vn -0.401854 -0.880226 0.252418
vn -0.401854 -0.880226 0.252418
vn -0.401854 -0.880226 0.252418
vn 0.868780 -0.453600 -0.198669
vn 0.868780 -0.453600 -0.198669
vn 0.868780 -0.453600 -0.198669
vn 0.868780 -0.453600 -0.198669
vn 0.401854 0.880226 -0.252418
vn 0.401854 0.880226 -0.252418
vn 0.401854 0.880226 -0.252418
vn -0.647351 0.078120 -0.758178
vn -0.647351 0.078120 -0.758178
vn -0.647351 0.078120 -0.758178
vn -0.647351 0.078120 -0.758178
vn -0.647649 0.468080 0.601208
vn -0.647649 0.468080 0.601208
vn -0.647649 0.468080 0.601208
vn -0.647649 0.468080 0.601208
s off
g tri7_R
usemtl initialShadingGroup
f 60/107/175 62/109/176 61/108/177
f 61/108/178 62/109/179 64/111/180 63/110/181
f 63/110/182 64/111/183 59/112/184
f 59/106/185 64/113/186 62/114/187 60/107/188
f 60/107/189 61/116/190 63/115/191 59/106/192
g default
v 0.936133 3.323347 4.999951
v 3.243126 2.560726 5.588331
v 0.939730 3.332357 4.997525
v 3.246723 2.569736 5.585905
v 0.476442 2.171029 -0.002393
v 1.629939 1.789718 0.291796
v 0.472845 2.162019 0.000033
v 1.626342 1.780708 0.294222
vt 0.375000 0.000000
vt 0.625000 0.000000
vt 0.375000 0.250000
vt 0.625000 0.250000
vt 0.375000 0.500000
vt 0.625000 0.500000
vt 0.375000 0.750000
vt 0.625000 0.750000
vt 0.375000 1.000000
vt 0.625000 1.000000
vt 0.875000 0.000000
vt 0.875000 0.250000
vt 0.125000 0.000000
vt 0.125000 0.250000
vn -0.138042 0.308528 0.941146
vn -0.138042 0.308528 0.941146
vn -0.138042 0.308528 0.941146
vn -0.138042 0.308528 0.941146
vn 0.359708 0.900975 -0.242599
vn 0.359708 0.900975 -0.242599
vn 0.359708 0.900975 -0.242599
vn 0.359708 0.900975 -0.242599
vn 0.138041 -0.308528 -0.941146
vn 0.138041 -0.308528 -0.941146
vn 0.138041 -0.308528 -0.941146
vn 0.138041 -0.308528 -0.941146
vn -0.359708 -0.900975 0.242599
vn -0.359708 -0.900975 0.242599
vn -0.359708 -0.900975 0.242599
vn -0.359708 -0.900975 0.242599
vn 0.887109 -0.410822 -0.210390
vn 0.887109 -0.410822 -0.210390
vn 0.887109 -0.410822 -0.210390
vn 0.887109 -0.410822 -0.210390
vn -0.928725 0.370770 -0.000064
vn -0.928725 0.370770 -0.000064
vn -0.928725 0.370770 -0.000064
vn -0.928725 0.370770 -0.000064
s off
g quad2_R
usemtl initialShadingGroup
f 65/117/193 66/118/194 68/120/195 67/119/196
f 67/119/197 68/120/198 70/122/199 69/121/200
f 69/121/201 70/122/202 72/124/203 71/123/204
f 71/123/205 72/124/206 66/126/207 65/125/208
f 66/118/209 72/127/210 70/128/211 68/120/212
f 71/129/213 65/117/214 67/119/215 69/130/216
g default
v 0.009287 1.001292 5.000000
v 0.936248 3.323090 5.000000
v 0.000000 1.005000 5.000000
v 0.926961 3.326798 5.000000
v 0.000000 1.005000 0.000000
v 0.463481 2.165899 -0.000000
v 0.009287 1.001292 0.000000
v 0.472768 2.162191 -0.000000
vt 0.375000 0.000000
vt 0.625000 0.000000
vt 0.375000 0.250000
vt 0.625000 0.250000
vt 0.375000 0.500000
vt 0.625000 0.500000
vt 0.375000 0.750000
vt 0.625000 0.750000
vt 0.375000 1.000000
vt 0.625000 1.000000
vt 0.875000 0.000000
vt 0.875000 0.250000
vt 0.125000 0.000000
vt 0.125000 0.250000
vn 0.000000 0.000000 1.000000
vn 0.000000 0.000000 1.000000
vn 0.000000 0.000000 1.000000
vn 0.000000 0.000000 1.000000
vn -0.928719 0.370784 -0.000000
vn -0.928719 0.370784 -0.000000
vn -0.928719 0.370784 -0.000000
vn -0.928719 0.370784 -0.000000
vn -0.000000 -0.000001 -1.000000
vn -0.000000 -0.000001 -1.000000
vn -0.000000 -0.000001 -1.000000
vn -0.000000 -0.000001 -1.000000
vn 0.928719 -0.370784 -0.000000
vn 0.928719 -0.370784 -0.000000
vn 0.928719 -0.370784 -0.000000
vn 0.928719 -0.370784 -0.000000
vn 0.359714 0.900990 -0.242535
vn 0.359714 0.900990 -0.242535
vn 0.359714 0.900990 -0.242535
vn 0.359714 0.900990 -0.242535
vn -0.370784 -0.928719 0.000000
vn -0.370784 -0.928719 0.000000
vn -0.370784 -0.928719 0.000000
vn -0.370784 -0.928719 0.000000
s off
g quad1_R
usemtl initialShadingGroup
f 73/131/217 74/132/218 76/134/219 75/133/220
f 75/133/221 76/134/222 78/136/223 77/135/224
f 77/135/225 78/136/226 80/138/227 79/137/228
f 79/137/229 80/138/230 74/140/231 73/139/232
f 74/132/233 80/141/234 78/142/235 76/134/236
f 79/143/237 73/131/238 75/133/239 77/144/240
g default
v -0.012183 2.962539 1.793945
v -0.008154 2.953742 1.796471
v -0.008528 1.001499 -4.999759
v -1.626159 1.781099 0.294151
v -0.012557 1.010296 -5.002286
v -1.630189 1.789896 0.291625
vt 0.625000 0.000000
vt 0.625000 0.250000
vt 0.375000 0.500000
vt 0.625000 0.500000
vt 0.375000 0.750000
vt 0.625000 0.750000
vt 0.625000 1.000000
vt 0.875000 0.000000
vt 0.875000 0.250000
vt 0.125000 0.000000
vt 0.125000 0.250000
vn 0.402933 -0.879663 0.252664
vn 0.402933 -0.879663 0.252664
vn 0.402933 -0.879663 0.252664
vn -0.868279 -0.454693 -0.198358
vn -0.868279 -0.454693 -0.198358
vn -0.868279 -0.454693 -0.198358
vn -0.868279 -0.454693 -0.198358
vn -0.402933 0.879663 -0.252664
vn -0.402933 0.879663 -0.252664
vn -0.402933 0.879663 -0.252664
vn -0.647128 -0.078609 0.758318
vn -0.647128 -0.078609 0.758318
vn -0.647128 -0.078609 0.758318
vn -0.647128 -0.078609 0.758318
vn 0.915230 0.387259 -0.111289
vn 0.915230 0.387259 -0.111289
vn 0.915230 0.387259 -0.111289
vn 0.915230 0.387259 -0.111289
s off
g tri3_L
usemtl initialShadingGroup
f 82/146/241 84/148/242 83/147/243
f 83/147/244 84/148/245 86/150/246 85/149/247
f 85/149/248 86/150/249 81/151/250
f 81/145/251 86/152/252 84/153/253 82/146/254
f 82/146/255 83/155/256 85/154/257 81/145/258
g default
v -1.630189 1.789896 0.291624
v -1.634218 1.798693 0.289098
v -0.016586 1.019093 -5.004813
v -0.016212 2.971335 1.791417
v -0.012557 1.010296 -5.002286
v -0.012183 2.962539 1.793944
vt 0.625000 0.000000
vt 0.625000 0.250000
vt 0.375000 0.500000
vt 0.625000 0.500000
vt 0.375000 0.750000
vt 0.625000 0.750000
vt 0.625000 1.000000
vt 0.875000 0.000000
vt 0.875000 0.250000
vt 0.125000 0.000000
vt 0.125000 0.250000
vn -0.402933 0.879663 -0.252664
vn -0.402933 0.879663 -0.252664
vn -0.402933 0.879663 -0.252664
vn 0.915230 0.387258 -0.111294
vn 0.915230 0.387258 -0.111294
vn 0.915230 0.387258 -0.111294
vn 0.915230 0.387258 -0.111294
vn 0.402933 -0.879663 0.252664
vn 0.402933 -0.879663 0.252664
vn 0.402933 -0.879663 0.252664
vn -0.647128 -0.078609 0.758318
vn -0.647128 -0.078609 0.758318
vn -0.647128 -0.078609 0.758318
vn -0.647128 -0.078609 0.758318
vn -0.868280 -0.454692 -0.198354
vn -0.868280 -0.454692 -0.198354
vn -0.868280 -0.454692 -0.198354
vn -0.868280 -0.454692 -0.198354
s off
g tri4_L
usemtl initialShadingGroup
f 88/157/259 90/159/260 89/158/261
f 89/158/262 90/159/263 92/161/264 91/160/265
f 91/160/266 92/161/267 87/162/268
f 87/156/269 92/163/270 90/164/271 88/157/272
f 88/157/273 89/166/274 91/165/275 87/156/276
g default
v -0.476269 2.171415 -0.002467
v -0.472672 2.162406 -0.000041
v -0.009384 1.001077 -4.999959
v -1.626169 1.781095 0.294149
v -0.012981 1.010087 -5.002385
v -1.629766 1.790104 0.291723
vt 0.625000 0.000000
vt 0.625000 0.250000
vt 0.375000 0.500000
vt 0.625000 0.500000
vt 0.375000 0.750000
vt 0.625000 0.750000
vt 0.625000 1.000000
vt 0.875000 0.000000
vt 0.875000 0.250000
vt 0.125000 0.000000
vt 0.125000 0.250000
vn 0.359708 -0.900975 0.242599
vn 0.359708 -0.900975 0.242599
vn 0.359708 -0.900975 0.242599
vn -0.887109 -0.410822 -0.210390
vn -0.887109 -0.410822 -0.210390
vn -0.887109 -0.410822 -0.210390
vn -0.887109 -0.410822 -0.210390
vn -0.359708 0.900975 -0.242599
vn -0.359708 0.900975 -0.242599
vn -0.359708 0.900975 -0.242599
vn 0.138041 0.308528 0.941146
vn 0.138041 0.308528 0.941146
vn 0.138041 0.308528 0.941146
vn 0.138041 0.308528 0.941146
vn 0.928725 0.370770 -0.000063
vn 0.928725 0.370770 -0.000063
vn 0.928725 0.370770 -0.000063
vn 0.928725 0.370770 -0.000063
s off
g tri5_L
usemtl initialShadingGroup
f 94/168/277 96/170/278 95/169/279
f 95/169/280 96/170/281 98/172/282 97/171/283
f 97/171/284 98/172/285 93/173/286
f 93/167/287 98/174/288 96/175/289 94/168/290
f 94/168/291 95/177/292 97/176/293 93/167/294
g default
v -1.616867 1.784809 0.294149
v -1.620465 1.793818 0.291723
v -0.003679 1.013801 -5.002385
v -0.466968 2.175129 -0.002467
v -0.000082 1.004791 -4.999959
v -0.463371 2.166119 -0.000041
vt 0.625000 0.000000
vt 0.625000 0.250000
vt 0.375000 0.500000
vt 0.625000 0.500000
vt 0.375000 0.750000
vt 0.625000 0.750000
vt 0.625000 1.000000
vt 0.875000 0.000000
vt 0.875000 0.250000
vt 0.125000 0.000000
vt 0.125000 0.250000
vn -0.359708 0.900975 -0.242599
vn -0.359708 0.900975 -0.242599
vn -0.359708 0.900975 -0.242599
vn 0.928725 0.370769 -0.000065
vn 0.928725 0.370769 -0.000065
vn 0.928725 0.370769 -0.000065
vn 0.928725 0.370769 -0.000065
vn 0.359708 -0.900975 0.242599
vn 0.359708 -0.900975 0.242599
vn 0.359708 -0.900975 0.242599
vn 0.138041 0.308528 0.941146
vn 0.138041 0.308528 0.941146
vn 0.138041 0.308528 0.941146
vn 0.138041 0.308528 0.941146
vn -0.887110 -0.410821 -0.210386
vn -0.887110 -0.410821 -0.210386
vn -0.887110 -0.410821 -0.210386
vn -0.887110 -0.410821 -0.210386
s off
g tri2_L
usemtl initialShadingGroup
f 100/179/295 102/181/296 101/180/297
f 101/180/298 102/181/299 104/183/300 103/182/301
f 103/182/302 104/183/303 99/184/304
f 99/178/305 104/185/306 102/186/307 100/179/308
f 100/179/309 101/188/310 103/187/311 99/178/312
g default
v -0.463467 2.165904 0.000000
v -0.454180 2.169612 0.000000
v 0.009301 1.008713 -5.000000
v 0.009301 1.008713 0.000000
v 0.000014 1.005006 -5.000000
v 0.000014 1.005006 0.000000
vt 0.625000 0.000000
vt 0.625000 0.250000
vt 0.375000 0.500000
vt 0.625000 0.500000
vt 0.375000 0.750000
vt 0.625000 0.750000
vt 0.625000 1.000000
vt 0.875000 0.000000
vt 0.875000 0.250000
vt 0.125000 0.000000
vt 0.125000 0.250000
vn 0.928719 0.370784 0.000000
vn 0.928719 0.370784 0.000000
vn 0.928719 0.370784 0.000000
vn 0.370784 -0.928719 0.000000
vn 0.370784 -0.928719 0.000000
vn 0.370784 -0.928719 0.000000
vn 0.370784 -0.928719 0.000000
vn -0.928719 -0.370784 -0.000000
vn -0.928719 -0.370784 -0.000000
vn -0.928719 -0.370784 -0.000000
vn -0.000000 -0.000000 1.000000
vn -0.000000 -0.000000 1.000000
vn -0.000000 -0.000000 1.000000
vn -0.000000 -0.000000 1.000000
vn -0.359714 0.900990 -0.242535
vn -0.359714 0.900990 -0.242535
vn -0.359714 0.900990 -0.242535
vn -0.359714 0.900990 -0.242535
s off
g tri1_L
usemtl initialShadingGroup
f 106/190/313 108/192/314 107/191/315
f 107/191/316 108/192/317 110/194/318 109/193/319
f 109/193/320 110/194/321 105/195/322
f 105/189/323 110/196/324 108/197/325 106/190/326
f 106/190/327 107/199/328 109/198/329 105/189/330
g default
v -0.000000 1.005000 0.000000
v -0.009287 1.001292 0.000000
v -0.009287 1.001292 -5.000000
v -0.472768 2.162191 -0.000000
v -0.000000 1.005000 -5.000000
v -0.463481 2.165899 -0.000000
vt 0.625000 0.000000
vt 0.625000 0.250000
vt 0.375000 0.500000
vt 0.625000 0.500000
vt 0.375000 0.750000
vt 0.625000 0.750000
vt 0.625000 1.000000
vt 0.875000 0.000000
vt 0.875000 0.250000
vt 0.125000 0.000000
vt 0.125000 0.250000
vn -0.928719 -0.370784 0.000000
vn -0.928719 -0.370784 0.000000
vn -0.928719 -0.370784 0.000000
vn -0.359714 0.900990 -0.242537
vn -0.359714 0.900990 -0.242537
vn -0.359714 0.900990 -0.242537
vn -0.359714 0.900990 -0.242537
vn 0.928719 0.370784 0.000000
vn 0.928719 0.370784 0.000000
vn 0.928719 0.370784 0.000000
vn -0.000000 0.000000 1.000000
vn -0.000000 0.000000 1.000000
vn -0.000000 0.000000 1.000000
vn -0.000000 0.000000 1.000000
vn 0.370784 -0.928719 -0.000000
vn 0.370784 -0.928719 -0.000000
vn 0.370784 -0.928719 -0.000000
vn 0.370784 -0.928719 -0.000000
s off
g tri6_L
usemtl initialShadingGroup
f 112/201/331 114/203/332 113/202/333
f 113/202/334 114/203/335 116/205/336 115/204/337
f 115/204/338 116/205/339 111/206/340
f 111/200/341 116/207/342 114/208/343 112/201/344
f 112/201/345 113/210/346 115/209/347 111/200/348
